<svg xmlns="http://www.w3.org/2000/svg" width="512" height="512" viewBox="0 0 1254 1254" fill="none">
  <title>Rivu Gallery Play Store icon</title>
  <rect width="1254" height="1254" fill="#1976D2"/>
  <g fill="#FFFFFF">
    <circle cx="401.93" cy="374.13" r="116.65"/>
    <path d="M 712.0 441.0 L 548.0 652.0 L 570.0 678.0 L 595.0 701.0 L 623.0 717.0 L 654.0 729.0 L 677.0 740.0 L 690.0 749.0 L 698.0 760.0 L 698.0 771.0 L 694.0 778.0 L 687.0 785.0 L 652.0 806.0 L 642.0 815.0 L 637.0 825.0 L 637.0 830.0 L 640.0 837.0 L 652.0 847.0 L 666.0 854.0 L 727.0 876.0 L 749.0 886.0 L 765.0 896.0 L 774.0 903.0 L 787.0 917.0 L 797.0 935.0 L 801.0 948.0 L 1093.0 948.0 L 1098.0 947.0 L 1109.0 941.0 L 1114.0 936.0 L 1119.0 927.0 L 1121.0 916.0 L 1120.0 908.0 L 1115.0 896.0 L 869.0 591.0 L 752.0 444.0 L 741.0 436.0 L 731.0 434.0 L 720.0 436.0 Z"/>
    <path d="M 628.0 756.0 L 617.0 745.0 L 579.0 723.0 L 558.0 707.0 L 530.0 678.0 L 455.0 590.0 L 446.0 586.0 L 431.0 587.0 L 424.0 591.0 L 170.0 902.0 L 165.0 917.0 L 167.0 930.0 L 176.0 942.0 L 189.0 948.0 L 641.0 949.0 L 647.0 940.0 L 648.0 927.0 L 640.0 910.0 L 625.0 896.0 L 566.0 860.0 L 553.0 848.0 L 546.0 835.0 L 547.0 823.0 L 559.0 809.0 L 572.0 801.0 L 611.0 783.0 L 622.0 776.0 L 629.0 767.0 Z"/>
  </g>
</svg>
